# xmcd
#
# Track frame offsets:
#	150
#	23576
#	43691
#	64170
#	85027
#	103485
#	124302
#	144166
#	161194
#	183181
#
# Disc length: 2747 seconds
#
# Revision: 0
# Processed by: cddbd v1.4PL0 Copyright (c) Steve Scherf et al.
# Submitted via: dBpowerAMP V4.0
#
DISCID=840ab90a
DTITLE=Pat Brown - Burning Hot and Heavy
DYEAR=2000
DGENRE=Blues
TTITLE0=A Little Taste of Love
TTITLE1=Put Yourself In My Place
TTITLE2=If It's Good For You
TTITLE3=As Long As He Takes Care of Home
TTITLE4=Do You Still Feel the Same Way
TTITLE5=Angel In Your Arms
TTITLE6=I Ain't Healed
TTITLE7=Keep On Searching
TTITLE8=Beware Of The Dog
TTITLE9=Don't Let Nobody Make A Fool Of You
EXTD=
EXTT0=
EXTT1=
EXTT2=
EXTT3=
EXTT4=
EXTT5=
EXTT6=
EXTT7=
EXTT8=
EXTT9=
PLAYORDER=
